<svg width="363" height="130" viewBox="0 0 363 130" fill="none" xmlns="http://www.w3.org/2000/svg"> <path d="M75.4 48.6C75.6 53.5333 77.1333 57.5 80 60.5C82.8666 63.5 86.8666 65 92 65C94.3333 65 96.3666 64.7333 98.1 64.2C99.8333 63.6667 101.3 62.9333 102.5 62C103.767 61.0667 104.767 60 105.5 58.8C106.3 57.5333 106.933 56.2 107.4 54.8L114.8 56.8C113.4 61.4 110.8 65.1667 107 68.1C103.267 70.9667 98.2 72.4 91.8 72.4C88.2666 72.4 85 71.8 82 70.6C79.0666 69.3333 76.5333 67.5667 74.4 65.3C72.2666 63.0333 70.6 60.3333 69.4 57.2C68.2 54.0667 67.6 50.6 67.6 46.8V44.4C67.6 40.9333 68.2 37.7 69.4 34.7C70.6666 31.7 72.4 29.1333 74.6 27C76.8 24.8 79.3666 23.1 82.3 21.9C85.3 20.6333 88.5333 20 92 20C96.0666 20 99.5666 20.7667 102.5 22.3C105.5 23.7667 107.933 25.6 109.8 27.8C111.733 30 113.133 32.4 114 35C114.933 37.6 115.4 40 115.4 42.2V48.6H75.4ZM92 27.4C89.8 27.4 87.7333 27.7667 85.8 28.5C83.9333 29.1667 82.2666 30.1333 80.8 31.4C79.4 32.6667 78.2333 34.1667 77.3 35.9C76.4333 37.5667 75.8666 39.4 75.6 41.4H107.6C107.467 39.2667 106.933 37.3333 106 35.6C105.133 33.8667 103.967 32.4 102.5 31.2C101.1 30 99.4666 29.0667 97.6 28.4C95.8 27.7333 93.9333 27.4 92 27.4ZM103.9 2.2L95.5 14H88.3L94.9 2.2H103.9Z" fill="white"/> <path d="M130.93 63.8H148.93V8.2H131.53V0.999996H156.73V63.8H174.73V71H130.93V63.8Z" fill="white"/> <path d="M228.161 62.6H226.961C225.361 65.9333 223.128 68.4 220.261 70C217.461 71.6 214.494 72.4 211.361 72.4C208.094 72.4 205.061 71.8667 202.261 70.8C199.461 69.6667 196.994 68.0333 194.861 65.9C192.794 63.7 191.161 61.0333 189.961 57.9C188.761 54.7667 188.161 51.1333 188.161 47V45.4C188.161 41.3333 188.761 37.7333 189.961 34.6C191.161 31.4667 192.794 28.8333 194.861 26.7C196.994 24.5 199.461 22.8333 202.261 21.7C205.061 20.5667 208.028 20 211.161 20C214.561 20 217.628 20.7667 220.361 22.3C223.161 23.7667 225.361 26.0667 226.961 29.2H228.161V21.4H235.961V60.8C235.961 62.8 236.861 63.8 238.661 63.8H241.161V71H235.861C233.594 71 231.728 70.2667 230.261 68.8C228.861 67.3333 228.161 65.4667 228.161 63.2V62.6ZM212.161 65C214.494 65 216.628 64.5667 218.561 63.7C220.561 62.8333 222.261 61.6 223.661 60C225.061 58.4 226.161 56.5 226.961 54.3C227.761 52.0333 228.161 49.5333 228.161 46.8V45.6C228.161 42.9333 227.761 40.5 226.961 38.3C226.161 36.0333 225.028 34.1 223.561 32.5C222.161 30.9 220.461 29.6667 218.461 28.8C216.528 27.8667 214.428 27.4 212.161 27.4C209.828 27.4 207.694 27.8333 205.761 28.7C203.828 29.5667 202.128 30.8 200.661 32.4C199.261 33.9333 198.161 35.8333 197.361 38.1C196.561 40.3 196.161 42.7333 196.161 45.4V47C196.161 52.6667 197.628 57.1 200.561 60.3C203.561 63.4333 207.428 65 212.161 65Z" fill="white"/> <path d="M282.891 71H267.491L250.191 21.4H259.391L274.591 67.4H275.791L290.991 21.4H300.191L282.891 71Z" fill="white"/> <path d="M320.322 48.6C320.522 53.5333 322.055 57.5 324.922 60.5C327.789 63.5 331.789 65 336.922 65C339.255 65 341.289 64.7333 343.022 64.2C344.755 63.6667 346.222 62.9333 347.422 62C348.689 61.0667 349.689 60 350.422 58.8C351.222 57.5333 351.855 56.2 352.322 54.8L359.722 56.8C358.322 61.4 355.722 65.1667 351.922 68.1C348.189 70.9667 343.122 72.4 336.722 72.4C333.188 72.4 329.922 71.8 326.922 70.6C323.989 69.3333 321.455 67.5667 319.322 65.3C317.189 63.0333 315.522 60.3333 314.322 57.2C313.122 54.0667 312.522 50.6 312.522 46.8V44.4C312.522 40.9333 313.122 37.7 314.322 34.7C315.589 31.7 317.322 29.1333 319.522 27C321.722 24.8 324.288 23.1 327.222 21.9C330.222 20.6333 333.455 20 336.922 20C340.989 20 344.489 20.7667 347.422 22.3C350.422 23.7667 352.855 25.6 354.722 27.8C356.655 30 358.055 32.4 358.922 35C359.855 37.6 360.322 40 360.322 42.2V48.6H320.322ZM336.922 27.4C334.722 27.4 332.655 27.7667 330.722 28.5C328.855 29.1667 327.188 30.1333 325.722 31.4C324.322 32.6667 323.155 34.1667 322.222 35.9C321.355 37.5667 320.789 39.4 320.522 41.4H352.522C352.389 39.2667 351.855 37.3333 350.922 35.6C350.055 33.8667 348.889 32.4 347.422 31.2C346.022 30 344.389 29.0667 342.522 28.4C340.722 27.7333 338.855 27.4 336.922 27.4ZM348.822 2.2L340.422 14H333.222L339.822 2.2H348.822Z" fill="white"/> <rect x="44" width="8" height="71" fill="white"/> <circle cx="22.5" cy="48.5" r="19" stroke="white" stroke-width="7"/> <path d="M268.2 116.2H267.6C266.8 117.7 265.7 118.833 264.3 119.6C262.933 120.333 261.433 120.7 259.8 120.7C258.133 120.7 256.567 120.417 255.1 119.85C253.633 119.283 252.333 118.467 251.2 117.4C250.1 116.333 249.217 115.017 248.55 113.45C247.917 111.85 247.6 110.033 247.6 108V107.2C247.6 105.2 247.933 103.417 248.6 101.85C249.267 100.25 250.15 98.9167 251.25 97.85C252.35 96.75 253.633 95.9167 255.1 95.35C256.567 94.7833 258.1 94.5 259.7 94.5C261.5 94.5 263.067 94.9 264.4 95.7C265.767 96.4667 266.833 97.6 267.6 99.1H268.2V95.2H272.1V126.1C272.1 127.233 271.733 128.167 271 128.9C270.3 129.633 269.383 130 268.25 130H252.1V126.4H266.85C267.75 126.4 268.2 125.9 268.2 124.9V116.2ZM259.9 117C261.067 117 262.15 116.783 263.15 116.35C264.15 115.917 265.017 115.3 265.75 114.5C266.517 113.7 267.117 112.75 267.55 111.65C267.983 110.517 268.2 109.267 268.2 107.9V107.3C268.2 105.967 267.983 104.75 267.55 103.65C267.117 102.517 266.517 101.55 265.75 100.75C265.017 99.95 264.133 99.3333 263.1 98.9C262.1 98.4333 261.033 98.2 259.9 98.2C258.733 98.2 257.633 98.4167 256.6 98.85C255.6 99.2833 254.717 99.9 253.95 100.7C253.217 101.5 252.633 102.45 252.2 103.55C251.8 104.65 251.6 105.867 251.6 107.2V108C251.6 109.4 251.8 110.65 252.2 111.75C252.633 112.85 253.217 113.8 253.95 114.6C254.717 115.367 255.6 115.967 256.6 116.4C257.6 116.8 258.7 117 259.9 117Z" fill="white"/> <path d="M303.365 107.9C303.365 109.967 303.015 111.8 302.315 113.4C301.649 114.967 300.749 116.3 299.615 117.4C298.482 118.467 297.149 119.283 295.615 119.85C294.115 120.417 292.549 120.7 290.915 120.7C289.249 120.7 287.665 120.417 286.165 119.85C284.665 119.283 283.349 118.467 282.215 117.4C281.082 116.3 280.165 114.967 279.465 113.4C278.799 111.8 278.465 109.967 278.465 107.9V107.3C278.465 105.267 278.799 103.467 279.465 101.9C280.165 100.3 281.082 98.95 282.215 97.85C283.382 96.75 284.715 95.9167 286.215 95.35C287.715 94.7833 289.282 94.5 290.915 94.5C292.549 94.5 294.115 94.7833 295.615 95.35C297.115 95.9167 298.432 96.75 299.565 97.85C300.732 98.95 301.649 100.3 302.315 101.9C303.015 103.467 303.365 105.267 303.365 107.3V107.9ZM290.915 117C292.115 117 293.215 116.8 294.215 116.4C295.249 115.967 296.149 115.35 296.915 114.55C297.682 113.75 298.282 112.8 298.715 111.7C299.149 110.567 299.365 109.3 299.365 107.9V107.3C299.365 105.967 299.149 104.75 298.715 103.65C298.282 102.517 297.682 101.55 296.915 100.75C296.149 99.95 295.249 99.3333 294.215 98.9C293.182 98.4333 292.082 98.2 290.915 98.2C289.749 98.2 288.649 98.4333 287.615 98.9C286.582 99.3333 285.682 99.95 284.915 100.75C284.149 101.55 283.549 102.517 283.115 103.65C282.682 104.75 282.465 105.967 282.465 107.3V107.9C282.465 109.3 282.682 110.567 283.115 111.7C283.549 112.8 284.149 113.75 284.915 114.55C285.682 115.35 286.565 115.967 287.565 116.4C288.599 116.8 289.715 117 290.915 117Z" fill="white"/> <path d="M310.58 116.4H319.58V88.6H310.88V85H323.48V116.4H332.48V120H310.58V116.4Z" fill="white"/> <path d="M340.946 95.2H348.596V88.9C348.596 87.7667 348.946 86.8333 349.646 86.1C350.379 85.3667 351.312 85 352.446 85H362.246V88.6H353.846C352.946 88.6 352.496 89.1 352.496 90.1V95.2H362.846V98.8H352.496V120H348.596V98.8H340.946V95.2Z" fill="white"/> </svg>